# xmcd
#
# Track frame offsets: 
#        150
#        16132
#        29389
#        44766
#        57558
#        72445
#        90757
#        105484
#        119481
#        131563
#        147595
#        160892
#        172449
#
# Disc length: 2502 seconds
#
# Revision: 0
# Processed by: cddbd v1.5.2PL0 Copyright (c) Steve Scherf et al.
# Submitted via: ExactAudioCopy v1.1
#
DISCID=be09c40d
DTITLE=Eden and John's East River String Band - Some Cold Rainy Day
DYEAR=2008
DGENRE=Blues
TTITLE0=Ain't No Tellin'
TTITLE1=Nobody's Business If I Do
TTITLE2=One Dime Blues
TTITLE3=Slidin' Delta
TTITLE4=Every Day In The Week
TTITLE5=Some Cold Rainy Day
TTITLE6=Bye Bye Baby Blues
TTITLE7=Future Blues
TTITLE8=I Had To Give Up Gin
TTITLE9=Rollin Log Blues
TTITLE10=Crow Jane
TTITLE11=Do Dirty Blues
TTITLE12=On Our Turpentine Farm
EXTD=
EXTT0=
EXTT1=
EXTT2=
EXTT3=
EXTT4=
EXTT5=
EXTT6=
EXTT7=
EXTT8=
EXTT9=
EXTT10=
EXTT11=
EXTT12=
PLAYORDER=
